<svg width="28" height="28" viewBox="0 0 28 28" fill="white" xmlns="http://www.w3.org/2000/svg">
<path d="M23.0667 13.1252H25.3543C25.3543 7.25744 20.9243 2.83203 15.0486 2.83203V5.11966C19.6948 5.11966 23.0667 8.4859 23.0667 13.1252Z" fill="white"/>
<path d="M15.0602 9.69461C17.4656 9.69461 18.4916 10.7206 18.4916 13.126H20.7792C20.7792 9.43725 18.7489 7.40698 15.0602 7.40698V9.69461ZM18.9743 15.9204C18.7545 15.7206 18.4657 15.6141 18.1688 15.6233C17.8719 15.6324 17.5903 15.7566 17.3832 15.9696L14.6461 18.7845C13.9873 18.6587 12.6627 18.2458 11.2993 16.8858C9.93587 15.5212 9.52296 14.1932 9.40057 13.539L12.2132 10.8007C12.4264 10.5938 12.5508 10.3121 12.56 10.0151C12.5691 9.71816 12.4624 9.42929 12.2624 9.20963L8.036 4.56232C7.83588 4.34197 7.55775 4.20831 7.26067 4.18973C6.96359 4.17115 6.67097 4.26911 6.44496 4.46281L3.96288 6.59144C3.76513 6.78991 3.6471 7.05406 3.63118 7.33378C3.61402 7.61973 3.28689 14.3934 8.53928 19.6481C13.1214 24.229 18.861 24.5642 20.4418 24.5642C20.6728 24.5642 20.8147 24.5573 20.8524 24.555C21.1321 24.5394 21.3961 24.4208 21.5936 24.2222L23.7211 21.739C23.9149 21.5131 24.0131 21.2205 23.9947 20.9235C23.9764 20.6264 23.8429 20.3482 23.6227 20.1479L18.9743 15.9204Z" fill="white"/>
</svg>
